<?xml version="1.0" encoding="utf-8"?>
<!-- Generator: Adobe Illustrator 23.0.6, SVG Export Plug-In . SVG Version: 6.00 Build 0)  -->
<svg version="1.1" id="Calque_1" xmlns="http://www.w3.org/2000/svg" xmlns:xlink="http://www.w3.org/1999/xlink" x="0px" y="0px"
	 viewBox="0 0 34 33" style="enable-background:new 0 0 34 33;" xml:space="preserve">
<style type="text/css">
	.st0{fill:#FFD457;}
	.st1{fill:#FFFFFF;}
</style>
<g id="noun_clap_2345412" transform="translate(-771.97 -796)">
	<g id="_10_Clap_Hand" transform="translate(771.97 796)">
		<path id="Tracé_58" class="st0" d="M8.3,12.9l-4.9,4.6l-1.6,3l-0.3,4.6l1.3,3.2l2.6,2.5l3.6,1.3h3l3.9-1.7l3.2-3.1l4.1-4.2
			l1.5-1.5v-1.7l-2.5-1.2l1.7-1.5l0.8-1.3l-0.8-1.6l-1.4-0.2l-1.2,0.8l1.9-2.2l0.7-1.4l-1.1-1.4h-1.5l-1.3,1L19,12l-0.5-1.2l-0.8-1
			h-1.5l-1.4,1.4l-3.2,3l-1.2,1.3v-2l-0.6-1.2H8.9L8.3,12.9z"/>
		<path id="Tracé_59" class="st0" d="M11,14.7c-1.4,1-4.6,2.8-4.6,2.8l-1.6,3l-0.3,4.6l1.3,3.2l2.6,2.5l3.6,1.3h3l3.9-1.7l3.2-3.1
			l4.1-4.2l1.5-1.5v-1.7L26,18.3l0.9-1.2l1.1-1.9l-1.1-1l-1.4-0.2l-1.2,0.8l1.9-2.2l0.7-1.4c-0.2-0.6-0.6-1.1-1.1-1.4
			c-0.5-0.2-1-0.2-1.5,0l-1.3,1L22,12l-0.5-1.2l-0.8-1l-1,1.6l-1.9-0.2l-3.2,3l-1.2,1.3v-2l-0.5-0.6l-1,0.6
			C11.9,13.5,12.4,13.7,11,14.7z"/>
		<path id="Tracé_51" d="M26.9,18.2l1-1c0.9-0.9,1-2.3,0.2-3.3c-0.3-0.4-0.7-0.6-1.2-0.7L27,13c0.9-0.9,1-2.3,0.2-3.3
			c-0.4-0.5-1-0.8-1.7-0.8c-0.6,0-1.3,0.2-1.7,0.7l-0.1,0.1c-0.4-0.4-1-0.6-1.5-0.6c-0.6,0-1.3,0.2-1.7,0.7l-1.1,1.1
			C19,9.8,18.1,9.1,17,9.1l0,0c-0.6,0-1.2,0.2-1.7,0.7L11.1,14c-0.1-0.7-0.4-1.3-0.9-1.8c-0.7-0.6-1.8-0.6-2.4,0.1l-4,4
			C0,19.9-0.2,25.8,3.2,29.6c2.3,2.6,5.8,3.7,9.2,2.9c0.4,0.1,0.9,0.1,1.3,0.1c2.5,0,4.9-1,6.7-2.8l7.6-7.6l0,0
			c0.9-0.9,1-2.3,0.2-3.3C27.8,18.5,27.3,18.3,26.9,18.2z M27.2,14.7c0.4,0.5,0.4,1.3-0.1,1.8l-2.4,2.4l0,0l-0.1,0.1c0,0,0,0,0,0
			c0,0-0.1-0.1-0.1-0.1s-0.1-0.1-0.1-0.1s-0.1-0.1-0.1-0.1c-0.1,0-0.1-0.1-0.2-0.1c0,0-0.1,0-0.1,0c-0.1,0-0.2-0.1-0.3-0.1l0.8-0.8
			l0.2-0.2c0.1-0.1,0.2-0.2,0.3-0.3c0,0,0.1-0.1,0.1-0.1s0.1-0.1,0.1-0.2s0.1-0.1,0.1-0.2c0,0,0-0.1,0-0.1c0.1-0.3,0.2-0.6,0.1-1v0
			c0-0.1,0-0.2,0-0.3c0,0,0,0,0-0.1c0-0.1,0-0.1,0-0.2l0.3-0.3l0,0c0.2-0.2,0.6-0.4,0.9-0.4C26.6,14.3,26.9,14.4,27.2,14.7z
			 M24.5,10.4c0.2-0.2,0.6-0.4,0.9-0.4c0.3,0,0.7,0.2,0.9,0.4c0.4,0.5,0.4,1.3-0.1,1.8l-1.6,1.6l0,0l0,0l-0.1,0.1c0,0,0,0,0,0
			c0,0-0.1-0.1-0.1-0.1c0,0-0.1-0.1-0.1-0.1s-0.1-0.1-0.1-0.1s-0.1-0.1-0.2-0.1s-0.1,0-0.1-0.1c-0.1,0-0.2-0.1-0.3-0.1h0l0.2-0.2
			c0.1-0.1,0.2-0.2,0.3-0.3c0,0,0,0,0-0.1c0.1-0.1,0.1-0.2,0.2-0.3c0,0,0-0.1,0-0.1c0.1-0.1,0.1-0.2,0.1-0.4c0,0,0-0.1,0-0.1
			c0-0.1,0-0.2,0-0.3c0-0.1,0-0.1,0-0.2c0-0.1,0-0.2,0-0.2c0-0.1,0-0.1,0-0.2c0-0.1,0-0.2-0.1-0.3L24.5,10.4z M6.5,30.7
			c-0.9-0.5-1.8-1.1-2.5-1.9c-3-3.4-2.8-8.6,0.5-11.7l4-4C8.7,13,8.8,12.9,9,12.9c0.1,0,0.3,0.1,0.4,0.1c0.7,0.7,0.8,1.8,0.1,2.6
			c0,0,0,0,0,0l-3.8,3.8c-0.2,0.2-0.2,0.6,0,0.8c0.2,0.2,0.6,0.2,0.8,0l3.8-3.8l5.9-5.9c0.2-0.2,0.5-0.4,0.9-0.4l0,0
			c0.7,0,1.2,0.5,1.2,1.2c0,0.3-0.1,0.6-0.4,0.9l-6.3,6.3c-0.2,0.2-0.2,0.6,0,0.8c0.2,0.2,0.6,0.2,0.8,0l0,0l6.3-6.3l2.5-2.5
			c0.5-0.5,1.3-0.5,1.7,0c0,0,0,0,0,0c0.2,0.2,0.3,0.4,0.3,0.6c0,0,0,0,0,0c0,0.1,0,0.1,0,0.2c0,0,0,0,0,0.1c0,0.1,0,0.1,0,0.2
			c0,0,0,0,0,0.1c0,0.1,0,0.1-0.1,0.2c0,0,0,0,0,0c-0.1,0.1-0.2,0.3-0.3,0.4l-1.3,1.3L21.2,14l0,0l0,0l0,0l0,0l-7.2,7.2
			c-0.2,0.2-0.2,0.6,0,0.8s0.6,0.2,0.8,0l0,0l7.2-7.2c0,0,0,0,0.1-0.1c0.2-0.2,0.5-0.3,0.8-0.3h0c0.1,0,0.2,0,0.2,0
			c0.2,0.1,0.5,0.2,0.6,0.4c0.1,0.1,0.2,0.3,0.3,0.5c0.1,0.5,0,0.9-0.4,1.3l-0.1,0.1l-2.3,2.3c0,0,0,0,0,0l-4.7,4.7
			c-0.2,0.2-0.2,0.6,0,0.8s0.6,0.2,0.8,0l4.7-4.7c0.2-0.2,0.4-0.3,0.6-0.3h0c0.1,0,0.2,0,0.2,0c0.1,0,0.2,0,0.2,0h0c0,0,0.1,0,0.1,0
			c0.2,0.1,0.4,0.2,0.5,0.3c0.1,0.1,0.1,0.1,0.1,0.2c0.3,0.5,0.2,1.2-0.3,1.6l-7.6,7.6c-0.2,0.2-0.3,0.3-0.5,0.4l-0.1,0.1
			c-0.1,0.1-0.3,0.2-0.4,0.3c-0.1,0-0.1,0.1-0.2,0.1c-0.1,0.1-0.2,0.2-0.4,0.2c-0.1,0-0.1,0.1-0.2,0.1c-0.1,0.1-0.2,0.1-0.3,0.2
			c-0.1,0-0.1,0.1-0.2,0.1c-0.1,0.1-0.2,0.1-0.3,0.1c-0.1,0-0.2,0.1-0.3,0.1s-0.2,0.1-0.3,0.1s-0.2,0.1-0.3,0.1l-0.1,0
			c-0.2,0-0.3,0.1-0.5,0.1c0,0,0,0,0,0C10.3,31.8,8.3,31.6,6.5,30.7L6.5,30.7z M19.5,29c-1.2,1.2-2.6,2-4.3,2.3c0,0,0.1,0,0.1-0.1
			c0.2-0.1,0.4-0.2,0.5-0.4c0.1-0.1,0.2-0.1,0.3-0.2c0.2-0.2,0.4-0.4,0.6-0.5c0,0,0.1-0.1,0.2-0.1l7.6-7.6c0.1-0.1,0.2-0.2,0.3-0.3
			c0,0,0.1-0.1,0.1-0.1c0-0.1,0.1-0.1,0.1-0.2c0-0.1,0.1-0.1,0.1-0.2c0,0,0-0.1,0-0.1c0.1-0.3,0.1-0.6,0.1-0.9v0c0-0.1,0-0.2,0-0.3
			c0,0,0-0.1,0-0.1s0-0.1,0-0.1l0.3-0.3l0,0c0.5-0.5,1.3-0.5,1.7,0c0,0,0,0,0,0.1c0.4,0.5,0.4,1.3-0.1,1.8L19.5,29z"/>
		<path id="Tracé_52" class="st1" d="M33.2,2.6c-0.2-0.2-0.6-0.2-0.8,0L29,6c-0.2,0.2-0.2,0.6,0,0.8c0.2,0.2,0.6,0.2,0.8,0l3.4-3.4
			C33.4,3.2,33.4,2.8,33.2,2.6z"/>
		<path id="Tracé_53" class="st1" d="M32.5,7l-2.2,1.1c-0.3,0.2-0.3,0.5-0.2,0.8c0.1,0.2,0.4,0.3,0.7,0.2L33,8
			c0.3-0.2,0.3-0.5,0.2-0.8C33.1,7,32.8,6.9,32.5,7z"/>
		<path id="Tracé_54" class="st1" d="M26.9,5.7c0.3,0.2,0.6,0.1,0.8-0.2l1.7-2.8c0.2-0.3,0.1-0.6-0.2-0.8c-0.3-0.2-0.6-0.1-0.8,0.2
			L26.7,5C26.5,5.2,26.6,5.6,26.9,5.7z"/>
		<path id="Tracé_55" class="st1" d="M13.2,4.9c0.1,0.3,0.5,0.4,0.7,0.3c0.3-0.1,0.4-0.5,0.3-0.7l-1.7-3.9
			c-0.1-0.3-0.5-0.4-0.7-0.3c-0.3,0.1-0.4,0.5-0.3,0.7L13.2,4.9z"/>
		<path id="Tracé_56" class="st1" d="M16,5.2c0.3,0,0.6-0.3,0.6-0.6c0,0,0,0,0,0V1.3c0-0.3-0.3-0.5-0.6-0.5c-0.3,0-0.5,0.2-0.5,0.5
			v3.4C15.4,5,15.6,5.2,16,5.2z"/>
		<path id="Tracé_57" class="st1" d="M11,6.2c0.2,0.2,0.6,0.3,0.8,0.1C12,6,12.1,5.7,11.9,5.5L9.7,2.7C9.5,2.4,9.1,2.4,8.9,2.6
			C8.7,2.8,8.6,3.1,8.8,3.4L11,6.2z"/>
	</g>
</g>
</svg>
