<svg xmlns="http://www.w3.org/2000/svg" width="82.051" height="80" viewBox="0 0 82.051 80">
  <g id="adobe-illustrator-cc" transform="translate(0 -130.746)">
    <path id="Tracé_13" data-name="Tracé 13" d="M3.419,134.165H78.632v73.162H3.419ZM0,210.746H82.051v-80H0Zm53.743-51.487c0-.273.1-.41.41-.41h5.367c.273,0,.41.1.41.41v26.974c0,.273-.068.41-.41.41h-5.3c-.342,0-.445-.171-.445-.444v-26.94Zm-.376-7.761a3.487,3.487,0,0,1,6.974,0,3.267,3.267,0,0,1-3.555,3.487A3.213,3.213,0,0,1,53.367,151.5ZM37.983,170.507c-.957-3.795-3.214-12.068-4.068-16.068h-.068c-.718,4-2.53,10.769-3.966,16.068Zm-9.5,5.539-2.7,10.256c-.068.273-.171.342-.513.342H20.239c-.342,0-.41-.1-.342-.513l9.709-33.983a11.075,11.075,0,0,0,.342-2.837c0-.239.1-.342.273-.342H37.4c.239,0,.342.068.41.342L48.684,186.2c.068.273,0,.444-.273.444H42.735c-.273,0-.445-.068-.513-.307l-2.8-10.291H28.479Z" transform="translate(0 0)" fill="#153059"/>
  </g>
</svg>
