<svg xmlns="http://www.w3.org/2000/svg" width="69.748" height="80.435" viewBox="0 0 69.748 80.435">
  <g id="drupal" transform="translate(-0.912 -0.709)">
    <path id="Soustraction_14" data-name="Soustraction 14" d="M14970.533-3787.9a34.692,34.692,0,0,1-13.576-2.738,34.821,34.821,0,0,1-11.087-7.471,34.714,34.714,0,0,1-7.475-11.087,34.65,34.65,0,0,1-2.738-13.576,35.072,35.072,0,0,1,1.6-10.635,32.731,32.731,0,0,1,4.583-9.162,35.784,35.784,0,0,1,7.227-7.453,42.635,42.635,0,0,1,9.524-5.528,16.356,16.356,0,0,0,5.178-3.811,14.621,14.621,0,0,0,2.625-4.191,13.594,13.594,0,0,0,1.054-4.783,63.028,63.028,0,0,0,6.685,7.507,18.341,18.341,0,0,0,2.426,1.991,54.271,54.271,0,0,0,7.328,3.7l.006,0a40.19,40.19,0,0,1,10.749,7.5,36.124,36.124,0,0,1,7.4,10.04,33.415,33.415,0,0,1,3.363,14.826,34.633,34.633,0,0,1-2.742,13.576,34.857,34.857,0,0,1-7.475,11.087,34.758,34.758,0,0,1-11.083,7.471A34.683,34.683,0,0,1,14970.533-3787.9Zm-3.073-9.054a.981.981,0,0,0-1.032.671,1.548,1.548,0,0,0,.61,1.635,15.522,15.522,0,0,0,9.05,2.663,26.478,26.478,0,0,0,10.767-2.534c1.519-.861,1.9-1.78,1.747-2.354a.651.651,0,0,0-.61-.52.634.634,0,0,0-.309.083,22.061,22.061,0,0,1-10.7,3.066,15.34,15.34,0,0,1-5.581-1.013,9.684,9.684,0,0,1-1.979-1.013A4.167,4.167,0,0,0,14967.46-3796.957Zm13.564-8.559a8.17,8.17,0,0,0-4.926,1.838,11.728,11.728,0,0,0-1.932,1.83c-.316.7-.379,1.226-.181,1.529a.667.667,0,0,0,.576.282.859.859,0,0,0,.361-.079,10.15,10.15,0,0,0,2.015-1.357l0,0,.007-.005,0,0a6.155,6.155,0,0,1,3.928-1.808,5.046,5.046,0,0,1,.576.034c2.74.324,3.028,1.3,3.238,2.015l0,.011c.108.357.194.638.563.739a2.409,2.409,0,0,0,.64.1.789.789,0,0,0,.7-.3c.321-.48.038-1.367-.057-1.627a5.591,5.591,0,0,0-2.572-2.666,4.44,4.44,0,0,0-1.856-.448h-.1A6.707,6.707,0,0,0,14981.024-3805.516Zm-17.372-16.75a13.535,13.535,0,0,0-6.616,1.574,11.709,11.709,0,0,0-3.86,3.472,14.09,14.09,0,0,0-2.248,5.016.026.026,0,0,1,0,.013h0v.006c-.376,3.355.279,6,1.947,7.871,2.534,2.84,6.655,2.922,7.117,2.922h.064a6.6,6.6,0,0,0,.836.053c1.377,0,3.942-.444,8.338-2.561,2.17-1.049,4-2.132,4.685-2.549l.019-.012c5.171-3.435,6.667-3.759,6.82-3.785a6.108,6.108,0,0,1,2.067-.369,4.567,4.567,0,0,1,1.525.23h.007c2.657,1.008,8.063,7.131,8.116,7.193a4.112,4.112,0,0,0,2.982,1.472,1.937,1.937,0,0,0,.659-.09,9.552,9.552,0,0,0,3.825-3.08,13.074,13.074,0,0,0,1.939-3.9,17.6,17.6,0,0,0,.784-4.768c0-2.987-.687-5.131-2.045-6.372a4.164,4.164,0,0,0-2.761-1.088h-.042l-.041,0h-.034l-.033,0h-.174c-2.325,0-8.278,4.411-9.448,5.295l-.041.034c-3,1.9-4.644,2.045-5.077,2.045h-.143c-2.015,0-5.609-2.655-6.013-2.957l-.013-.01c-5.933-4.55-9.105-5.254-9.133-5.257A21.622,21.622,0,0,0,14963.652-3822.266Z" transform="translate(-14934.745 3869.047)" fill="#153059"/>
  </g>
</svg>
