<svg xmlns="http://www.w3.org/2000/svg" width="68.208" height="96.274" viewBox="0 0 68.208 96.274">
  <g id="html5-2" transform="translate(-0.002)">
    <path id="Soustraction_9" data-name="Soustraction 9" d="M15891.061-3783.653h0l-27.853-7.734L15857-3861h68.208l-6.215,69.607-27.934,7.741Zm.028-14.766h0v8.842l22.581-6.259,5.312-59.515h-27.893v8.557h-21.4l.2,2.294,2.1,23.541h19.1v13.651l-.016.005-9.517-2.57-.607-6.814h-8.577l1.2,13.413,17.5,4.86.02-.006Zm0-31.08h-11.283l-.783-8.749h12.066v8.748Z" transform="translate(-15856.999 3879.928)" fill="#153059"/>
    <path id="Tracé_29" data-name="Tracé 29" d="M108.382,0h4.339V4.289h3.969V0h4.339V12.989H116.69V8.639h-3.969v4.349h-4.339V0Zm18.353,4.307h-3.82V0H134.9V4.307h-3.821v8.682h-4.339ZM136.8,0h4.524L144.1,4.564,146.884,0h4.526V12.989h-4.321V6.551L144.1,11.169h-.074l-2.987-4.618v6.438H136.8V0ZM153.57,0h4.34V8.7h6.1v4.293H153.57Z" transform="translate(-102.033)" fill="#153059"/>
    <g id="Groupe_14" data-name="Groupe 14" transform="translate(34.067 33.136)">
      <path id="Tracé_30" data-name="Tracé 30" d="M255.844,193.6v8.543h10.519l-.992,11.079-9.528,2.572v8.888l17.513-4.854.128-1.443,2.007-22.49.208-2.294H255.844Zm0-17.291v8.543h20.635l.171-1.92.389-4.331.2-2.292Z" transform="translate(-255.844 -176.305)" fill="#153059"/>
    </g>
  </g>
</svg>
