<svg xmlns="http://www.w3.org/2000/svg" width="79.944" height="79.941" viewBox="0 0 79.944 79.941">
  <g id="javascript" transform="translate(0.001 0)" opacity="0.803">
    <path id="Soustraction_10" data-name="Soustraction 10" d="M15572.943-3789.059H15493V-3869h79.944v79.94Zm-26.244-17.483h0l-6.116,3.541a13.5,13.5,0,0,0,5.053,5.468,16.423,16.423,0,0,0,8.631,2.208,14.1,14.1,0,0,0,8.9-2.7,9.558,9.558,0,0,0,3.549-7.769,9.973,9.973,0,0,0-2.6-7.229c-1.528-1.643-3.736-3.01-7.385-4.573l-1.876-.805a13.257,13.257,0,0,1-3.517-1.959,3.246,3.246,0,0,1-1.1-2.6c0-1.9,1.479-3.22,3.6-3.22,2.155,0,3.554.933,4.827,3.22l5.851-3.756c-2.355-4.157-5.649-6.011-10.678-6.011a11.5,11.5,0,0,0-8.017,2.85,9.523,9.523,0,0,0-2.985,7.077,10.2,10.2,0,0,0,2.476,7.09,17.759,17.759,0,0,0,6.541,4.232l1.876.8c3.415,1.492,5.476,2.392,5.476,4.991a3.216,3.216,0,0,1-1.382,2.655,6.2,6.2,0,0,1-3.719,1.046,7.691,7.691,0,0,1-4.486-1.294,10.318,10.318,0,0,1-2.919-3.267Zm-32.68,4.345h0a11.811,11.811,0,0,0,4.049,4.841,12.645,12.645,0,0,0,7.224,2.025,14.463,14.463,0,0,0,4.559-.675,9.457,9.457,0,0,0,3.542-2.068c2.065-1.945,3.112-4.832,3.112-8.579V-3832.3h-7.512v25.541a5.245,5.245,0,0,1-1.086,3.769,3.884,3.884,0,0,1-2.939.952,4.01,4.01,0,0,1-2.937-1.146,11.488,11.488,0,0,1-1.89-2.715l-6.116,3.7Z" transform="translate(-15493 3869)" fill="#fff"/>
  </g>
</svg>
