<svg xmlns="http://www.w3.org/2000/svg" width="96" height="49.973" viewBox="0 0 96 49.973">
  <g id="php-1" opacity="0.803">
    <ellipse id="Ellipse_3" data-name="Ellipse 3" cx="48" cy="24.986" rx="48" ry="24.986" transform="translate(0 0)" fill="#fff"/>
    <path id="Tracé_33" data-name="Tracé 33" d="M35.945,50.192l5.261-26.63H53.369c5.26.329,7.89,2.959,7.89,7.562,0,7.89-6.246,12.493-11.836,12.164H43.507l-1.315,6.9Zm8.877-11.835,1.644-9.863H50.74c2.3,0,3.945.986,3.945,2.959-.328,5.589-2.959,6.576-5.917,6.9H44.822Zm15.216,4.931,5.26-26.63h6.247l-1.315,6.9h5.917c5.261.329,7.233,2.959,6.576,6.247l-2.3,13.479H73.846l2.3-12.164c.329-1.644.329-2.63-1.972-2.63H69.243L66.284,43.288ZM80,50.192l5.26-26.63H97.424c5.261.329,7.891,2.959,7.891,7.562,0,7.89-6.247,12.493-11.836,12.164H87.562l-1.315,6.9Zm8.876-11.835,1.644-9.863h4.274c2.3,0,3.945.986,3.945,2.959-.329,5.589-2.959,6.576-5.918,6.9H88.877Z" transform="translate(-22.466 -10.411)" fill-rule="evenodd"/>
  </g>
</svg>
