<svg xmlns="http://www.w3.org/2000/svg" width="82.051" height="80" viewBox="0 0 82.051 80">
  <g id="photoshop-cc" transform="translate(0 -130.746)">
    <path id="Tracé_32" data-name="Tracé 32" d="M3.419,134.165H78.632v73.162H3.419ZM0,210.746H82.051v-80H0Zm55.316-47.18c-2.7,0-3.624,1.367-3.624,2.5,0,1.231.615,2.085,4.239,3.966,5.367,2.6,7.043,5.094,7.043,8.752,0,5.47-4.171,8.41-9.812,8.41a14.874,14.874,0,0,1-7.009-1.47c-.239-.1-.273-.273-.273-.547v-5.026c0-.342.171-.445.41-.273a12.689,12.689,0,0,0,6.872,2.017c2.7,0,3.829-1.128,3.829-2.667,0-1.231-.786-2.325-4.239-4.1-4.855-2.325-6.872-4.684-6.872-8.615,0-4.41,3.453-8.068,9.436-8.068a15.721,15.721,0,0,1,6.12.957.757.757,0,0,1,.342.684v4.684c0,.273-.171.445-.513.342A11.549,11.549,0,0,0,55.316,163.566Zm-29.4,4.068c.786.068,1.4.068,2.769.068,4,0,7.761-1.4,7.761-6.838,0-4.342-2.7-6.53-7.248-6.53-1.367,0-2.667.068-3.282.1Zm-6.085-18.154c0-.239.479-.41.752-.41,2.188-.1,5.436-.171,8.821-.171,9.47,0,13.162,5.2,13.162,11.829,0,8.684-6.291,12.41-14.017,12.41-1.3,0-1.743-.068-2.667-.068V186.2c0,.273-.1.41-.41.41H20.239c-.273,0-.41-.1-.41-.41V149.481Z" fill="#153059"/>
  </g>
</svg>
