<svg xmlns="http://www.w3.org/2000/svg" width="94.78" height="71.044" viewBox="0 0 94.78 71.044">
  <path id="sass-1" d="M81.475,41.036a19.526,19.526,0,0,0-8.59,2,17.669,17.669,0,0,1-1.925-4.443,12.289,12.289,0,0,1-.167-3.74,29.966,29.966,0,0,1,1.129-4.036c-.019-.167-.2-.981-2.111-1s-3.555.37-3.74.87a21.262,21.262,0,0,0-.8,2.833c-.333,1.74-3.814,7.905-5.795,11.145a11.37,11.37,0,0,1-1.315-3.259A12.288,12.288,0,0,1,58,37.667a29.982,29.982,0,0,1,1.129-4.036c-.019-.167-.2-.981-2.11-1s-3.555.37-3.74.87-.389,1.685-.8,2.833c-.389,1.148-5.017,11.441-6.221,14.126-.611,1.37-1.148,2.462-1.537,3.2s-.019.056-.056.13c-.333.629-.518.981-.518.981v.019c-.259.463-.537.907-.667.907a6.174,6.174,0,0,1,.037-2.943c.685-3.573,2.351-9.146,2.333-9.349,0-.093.315-1.074-1.074-1.574a1.687,1.687,0,0,0-1.944.333c-.111,0-.2.3-.2.3s1.5-6.276-2.87-6.276c-2.74,0-6.517,2.981-8.387,5.7-1.185.648-3.7,2.018-6.369,3.48-1.018.555-2.073,1.148-3.073,1.685l-.2-.223C16.438,41.184,6.645,37.186,7.052,29.6c.148-2.758,1.111-10.034,18.81-18.847,14.5-7.22,26.1-5.239,28.121-.833,2.87,6.295-6.2,17.995-21.272,19.68-5.739.648-8.757-1.574-9.516-2.407-.8-.87-.907-.907-1.2-.741-.481.259-.185,1.037,0,1.5.444,1.166,2.3,3.24,5.443,4.277,2.758.907,9.5,1.407,17.643-1.74,9.127-3.536,16.255-13.348,14.163-21.549C57.112.585,43.264-2.155,30.175,2.492,22.381,5.269,13.939,9.6,7.866,15.284.646,22.023-.5,27.91-.02,30.354c1.685,8.72,13.7,14.4,18.513,18.606-.241.129-.463.259-.666.37C15.42,50.515,6.256,55.31,3.96,60.383c-2.592,5.739.407,9.868,2.407,10.423,6.183,1.722,12.515-1.37,15.94-6.461,3.406-5.091,3-11.7,1.426-14.718l-.056-.111L25.565,48.4c1.222-.722,2.425-1.388,3.48-1.963a23.051,23.051,0,0,0-1.24,6.295c-.259,3.259,1.074,7.479,2.833,9.146a3.134,3.134,0,0,0,2.277.741c2.036,0,2.962-1.685,3.98-3.7,1.259-2.462,2.37-5.313,2.37-5.313s-1.388,7.72,2.407,7.72c1.388,0,2.777-1.8,3.406-2.721v.019s.037-.056.111-.185.152-.232.222-.352V58.05c.555-.963,1.8-3.166,3.647-6.813,2.388-4.7,4.684-10.59,4.684-10.59a33.791,33.791,0,0,0,.907,3.814A36.495,36.495,0,0,0,56.63,48.9c-.555.778-.889,1.222-.889,1.222l.019.019c-.444.592-.944,1.222-1.462,1.851-1.888,2.259-4.147,4.832-4.443,5.573a1.525,1.525,0,0,0,.407,2.036,3.706,3.706,0,0,0,2.333.37,10.391,10.391,0,0,0,3.48-.8,12.054,12.054,0,0,0,3-1.574,6.677,6.677,0,0,0,2.87-5.906,11.874,11.874,0,0,0-1.092-4.165c.167-.241.333-.482.5-.741a78.15,78.15,0,0,0,5.184-8.979,33.791,33.791,0,0,0,.907,3.814,26.736,26.736,0,0,0,1.685,3.814,16.459,16.459,0,0,0-5.054,6.535c-1.092,3.147-.241,4.573,1.37,4.906a4.928,4.928,0,0,0,2.536-.518,11.493,11.493,0,0,0,3.2-1.648c1.851-1.37,3.629-3.277,3.536-5.85a11.215,11.215,0,0,0-.8-3.462A18.036,18.036,0,0,1,83.1,44.351c8.238.963,9.868,6.109,9.553,8.257a5.53,5.53,0,0,1-2.611,3.7c-.574.352-.759.482-.7.741.074.389.333.37.833.3a6.408,6.408,0,0,0,4.48-5.72c.222-5.092-4.61-10.646-13.181-10.591ZM17.938,62.456c-2.721,2.981-6.554,4.11-8.183,3.147C8,64.585,8.681,60.2,12.032,57.032a43.56,43.56,0,0,1,6.424-4.795c.389-.241.981-.592,1.685-1.018a1.974,1.974,0,0,1,.185-.111c.13-.074.278-.167.426-.259a11.809,11.809,0,0,1-2.814,11.608Zm19.9-13.533c-.944,2.314-2.944,8.257-4.147,7.924-1.037-.278-1.666-4.776-.2-9.22a20.582,20.582,0,0,1,3.24-5.943c1.5-1.666,3.129-2.222,3.536-1.537C40.746,41.036,38.432,47.479,37.839,48.923Zm16.421,7.85c-.407.2-.778.352-.944.241-.13-.074.166-.352.166-.352s2.055-2.2,2.87-3.221c.463-.592,1.018-1.277,1.611-2.055v.222c0,2.666-2.555,4.443-3.7,5.165Zm12.663-2.888c-.3-.222-.259-.907.741-3.055A11.447,11.447,0,0,1,70.478,47.2a4.58,4.58,0,0,1,.278,1.592A5.209,5.209,0,0,1,66.924,53.885Z" transform="translate(0.116 -0.241)" fill="#fff" opacity="0.798"/>
</svg>
