<svg xmlns="http://www.w3.org/2000/svg" width="80.486" height="80.486" viewBox="0 0 80.486 80.486">
  <g id="symfony" transform="translate(0.002 -0.825)">
    <path id="Soustraction_11" data-name="Soustraction 11" d="M15156.723-3787.689a39.985,39.985,0,0,1-15.663-3.162,40.125,40.125,0,0,1-12.792-8.624,40.124,40.124,0,0,1-8.624-12.791,39.993,39.993,0,0,1-3.162-15.663,40,40,0,0,1,3.162-15.666,40.118,40.118,0,0,1,8.624-12.792,40.119,40.119,0,0,1,12.792-8.625,39.985,39.985,0,0,1,15.663-3.162,39.991,39.991,0,0,1,15.665,3.162,40.109,40.109,0,0,1,12.793,8.625,40.11,40.11,0,0,1,8.625,12.792,40,40,0,0,1,3.162,15.666,39.993,39.993,0,0,1-3.162,15.663,40.122,40.122,0,0,1-8.625,12.791,40.115,40.115,0,0,1-12.793,8.624A40,40,0,0,1,15156.723-3787.689Zm-16.146-20.411-.136,0a4.265,4.265,0,0,0-3.944,4.31c.1,2.852,2.721,4.844,6.377,4.844.114,0,.234,0,.341-.007h.021a12.9,12.9,0,0,0,4.84-1.2,19.376,19.376,0,0,0,6.759-5.329c5.407-6.332,6.971-13.613,8.111-18.929l0-.008.037-.174,1.281-7.09c.76.089,1.514.142,2.308.16.134,0,.271,0,.4,0a12.38,12.38,0,0,0,7.363-2.034,5.332,5.332,0,0,0,2.5-3.92,3.306,3.306,0,0,0-.889-2.355,2.15,2.15,0,0,0-1.557-.688h-.049a2.845,2.845,0,0,0-2.7,2.189,2.393,2.393,0,0,0,.491,1.636c.468.815.909,1.583-.263,2.342a9.258,9.258,0,0,1-4.919,1.19,16.544,16.544,0,0,1-2.4-.183l.633-3.49c1.28-6.578,2.874-14.764,8.909-14.962.051,0,.107,0,.162,0,.442,0,1.888.078,1.925,1.087.006.3-.054.411-.306.894l-.055.105c-.041.079-.086.166-.136.263a2.852,2.852,0,0,0-.561,1.793,2.807,2.807,0,0,0,3.046,2.737l.153,0a2.957,2.957,0,0,0,2.146-.934,4.177,4.177,0,0,0,1.021-2.816,4.157,4.157,0,0,0-2.011-3.382,8.853,8.853,0,0,0-4.839-1.262c-.139,0-.277,0-.412.007a12.473,12.473,0,0,0-5.687,1.641,17.052,17.052,0,0,0-4.615,3.866,34.444,34.444,0,0,0-6.3,11.591c-.613-.5-1.205-1.054-1.777-1.587l-.032-.03a15.863,15.863,0,0,0-6.691-4.284,11.287,11.287,0,0,0-3.109-.452,10.4,10.4,0,0,0-6.311,2.172,8.385,8.385,0,0,0-2.88,4.2,7.886,7.886,0,0,0,.323,5.359,11.808,11.808,0,0,0,2.079,3.348l2.468,2.647a3.655,3.655,0,0,1,1.137,3.81,4.394,4.394,0,0,1-4.273,2.907,5.175,5.175,0,0,1-1.527-.233c-1.354-.418-2.812-1.31-2.464-2.449a3.288,3.288,0,0,1,.4-.774l0,0a3.93,3.93,0,0,0,.3-.526,6.033,6.033,0,0,0,.292-.747l.021-.066a3.7,3.7,0,0,0-.116-2.438,2.754,2.754,0,0,0-1.727-1.658,3.958,3.958,0,0,0-1.159-.185,2.637,2.637,0,0,0-2.6,2.089,5.454,5.454,0,0,0,.66,4.279,9.636,9.636,0,0,0,5.557,3.921,13.185,13.185,0,0,0,3.863.6,10.634,10.634,0,0,0,6.429-2.072,8.023,8.023,0,0,0,3.141-5,6.84,6.84,0,0,0-.55-4.15,17.282,17.282,0,0,0-2.821-4.05l-2.048-2.261a3.97,3.97,0,0,1-1.138-2.344,3.523,3.523,0,0,1,.756-2.633,3.872,3.872,0,0,1,3.216-1.555,7.476,7.476,0,0,1,1.938.289,13.4,13.4,0,0,1,5.78,3.656c.718.659,1.459,1.34,2.3,1.97-1.1,3.613-1.839,7.28-2.488,10.515l-.006.027-.05.247-.408,2.494a87.1,87.1,0,0,1-2.95,12.23,15.087,15.087,0,0,1-4.4,6.947l-.084.06a6.14,6.14,0,0,1-3.509,1.39h-.063a1.017,1.017,0,0,1-1.119-.848,1.271,1.271,0,0,1,.687-1.06c.058-.043.112-.084.164-.126a2.152,2.152,0,0,0,1.251-2.258,3.305,3.305,0,0,0-1.012-2.283A3.582,3.582,0,0,0,15140.577-3808.1Z" transform="translate(-15116.483 3869)" fill="#153059"/>
  </g>
</svg>
