<svg xmlns="http://www.w3.org/2000/svg" width="80.502" height="80.501" viewBox="0 0 80.502 80.501">
  <path id="wordpress-icon-1" d="M48.651,88.9A39.942,39.942,0,0,1,8.4,48.65C8.569,26.178,25.507,8.4,48.651,8.4S88.9,26.513,88.9,48.65A40.26,40.26,0,0,1,48.651,88.9Zm11.907-6.206L49.154,52,38.42,83.366C46.3,85.212,51.67,85.714,60.558,82.695ZM32.719,81.019,15.612,34.228c-2.349,5.031-2.851,9.225-3.187,14.423A36.336,36.336,0,0,0,32.719,81.019ZM84.709,48.65c.167-8.888-3.857-15.932-4.193-16.938a36.143,36.143,0,0,1-1.844,14.256l-11.74,33.71C81.691,70.788,84.54,57.538,84.876,48.65h-.167ZM47.478,47.141l-5.7-15.6-4.193-.335c-1.676-1.174-.671-3.019.5-3.019a123.416,123.416,0,0,0,19.287,0,1.512,1.512,0,1,1,.167,3.019l-4.025.335,13.08,38.573,6.2-21.131c.336-9.223-2.181-10.229-5.534-16.938-2.684-5.2.168-10.231,5.368-10.4-4.195-4.025-12.746-9.056-23.984-9.225A35.972,35.972,0,0,0,18.46,28.693l12.412-.335a1.724,1.724,0,0,1,0,3.019l-4.36.335L39.593,70.956l7.885-23.815Z" transform="translate(-8.399 -8.4)" fill="#153059"/>
</svg>
