<svg xmlns="http://www.w3.org/2000/svg" width="82.054" height="79.998" viewBox="0 0 82.054 79.998">
  <g id="adobe-xd-1" transform="translate(0.001 -0.001)" opacity="0.803">
    <path id="Soustraction_7" data-name="Soustraction 7" d="M15554.521-3532h-52.991a14.442,14.442,0,0,1-10.278-4.251,14.435,14.435,0,0,1-4.253-10.276v-50.944a14.435,14.435,0,0,1,4.253-10.276,14.442,14.442,0,0,1,10.278-4.251h52.991a14.442,14.442,0,0,1,10.278,4.251,14.435,14.435,0,0,1,4.253,10.276v50.944a14.435,14.435,0,0,1-4.253,10.276A14.442,14.442,0,0,1,15554.521-3532Zm-51.679-76.556a12.414,12.414,0,0,0-12.4,12.4v48.314a12.418,12.418,0,0,0,12.4,12.406h50.361a12.291,12.291,0,0,0,8.769-3.649,12.29,12.29,0,0,0,3.6-8.788v-48.283a12.321,12.321,0,0,0-3.626-8.76,12.307,12.307,0,0,0-8.776-3.638Zm40.676,53.546h-.066a12.392,12.392,0,0,1-9.155-3.47,11.828,11.828,0,0,1-2.634-4.353,18.425,18.425,0,0,1-.941-6.119,14.743,14.743,0,0,1,3.724-10.143,12.611,12.611,0,0,1,4.345-3.032,14.7,14.7,0,0,1,5.725-1.1,14.96,14.96,0,0,1,1.794.07v-9.116a.34.34,0,0,1,.344-.344h5.435c.247,0,.344.077.344.273v31.583a24.577,24.577,0,0,0,.172,3.376c0,.2-.065.269-.277.379A20.553,20.553,0,0,1,15543.519-3555.011Zm.789-23.092a6.744,6.744,0,0,0-5.307,2.364,9.912,9.912,0,0,0-2.055,6.518c0,3,.685,5.288,2.035,6.814a6.372,6.372,0,0,0,4.951,2.063,6.3,6.3,0,0,0,2.376-.383l0-17.032A5.328,5.328,0,0,0,15544.308-3578.1Zm-15.48,22.6h-5.99a.675.675,0,0,1-.723-.445q-.658-1.356-1.317-2.71l-.387-.795c-1.367-2.8-3.239-6.644-5.04-10.464h-.066c-2.06,4.585-4.321,9.429-6.541,14.008a.667.667,0,0,1-.621.379h-5.67a.291.291,0,0,1-.285-.137.333.333,0,0,1,.078-.348l9.429-17.958-9.116-18.169a.312.312,0,0,1-.062-.328.3.3,0,0,1,.266-.152h5.92c.355,0,.488.082.617.379,2.55,5.334,4.6,9.717,6.439,13.793h.066c2.177-4.95,4.528-9.955,6.334-13.761l0-.006c.169-.274.271-.439.613-.439h5.54a.276.276,0,0,1,.263.125.345.345,0,0,1-.055.359l-9.124,17.61,9.636,18.509a.407.407,0,0,1,.047.414A.273.273,0,0,1,15528.827-3555.5Z" transform="translate(-15487 3612)" fill="#fff"/>
  </g>
</svg>
