<?xml version="1.0" encoding="utf-8"?>
<!-- Generator: Adobe Illustrator 25.0.1, SVG Export Plug-In . SVG Version: 6.00 Build 0)  -->
<svg version="1.1" id="Calque_1" xmlns="http://www.w3.org/2000/svg" xmlns:xlink="http://www.w3.org/1999/xlink" x="0px" y="0px"
	 viewBox="0 0 76.8 76.9" style="enable-background:new 0 0 76.8 76.9;" xml:space="preserve">
<style type="text/css">
	.st0{fill:#E7C14F;}
</style>
<polygon class="st0" points="76.8,38.5 73.1,33 75.1,26.6 69.7,22.6 69.7,15.9 63.3,13.8 61.2,7.4 54.5,7.4 50.5,2 44.1,4 38.5,0 
	33,3.9 26.6,1.9 22.6,7.3 15.9,7.3 13.8,13.7 7.4,15.8 7.4,22.5 2,26.5 4,32.9 0,38.5 3.9,44 1.9,50.4 7.3,54.4 7.3,61.1 13.7,63.2 
	15.8,69.6 22.5,69.6 26.5,75 32.9,73 38.4,76.9 43.9,73 50.3,75 54.3,69.6 61,69.6 63.1,63.2 69.5,61.1 69.5,54.4 74.9,50.4 
	72.9,44 "/>
</svg>
